<?xml version="1.0" standalone="no"?>
<!DOCTYPE svg PUBLIC "-//W3C//DTD SVG 20010904//EN"
 "http://www.w3.org/TR/2001/REC-SVG-20010904/DTD/svg10.dtd">
<svg version="1.0" xmlns="http://www.w3.org/2000/svg"
 width="700.000000pt" height="700.000000pt" viewBox="0 0 700.000000 700.000000"
 preserveAspectRatio="xMidYMid meet">
<metadata>
Created by potrace 1.14, written by Peter Selinger 2001-2017
</metadata>
<g transform="translate(0.000000,700.000000) scale(0.100000,-0.100000)"
fill="#000000" stroke="none">
<path d="M2500 6390 c-795 -28 -1420 -87 -1709 -161 -305 -78 -563 -369 -645
-727 -50 -220 -98 -673 -128 -1212 -16 -296 -16 -1326 0 -1615 30 -517 79
-958 132 -1181 81 -342 308 -619 585 -714 224 -77 802 -133 1765 -171 398 -16
1780 -17 2150 -1 890 38 1423 96 1629 179 266 106 478 361 556 668 57 224 113
717 147 1300 16 281 16 1247 0 1530 -33 569 -93 1059 -158 1281 -98 340 -334
588 -646 678 -192 55 -619 97 -1363 132 -381 18 -1933 27 -2315 14z m623
-1183 c275 -57 471 -137 678 -279 310 -211 545 -521 663 -876 19 -57 36 -105
39 -108 2 -2 343 192 758 432 415 241 774 444 799 451 120 38 257 -26 314
-147 l21 -45 0 -1125 0 -1125 -27 -51 c-63 -119 -201 -175 -324 -130 -22 8
-376 210 -789 449 l-750 434 -41 -121 c-50 -148 -80 -215 -149 -331 -244 -416
-667 -718 -1141 -815 -162 -34 -309 -39 -919 -36 -550 3 -585 4 -677 25 -255
56 -454 164 -634 345 -242 242 -364 537 -364 881 0 205 42 380 134 562 180
356 528 609 923 668 148 22 1201 22 1310 -1 309 -63 544 -299 607 -606 78
-381 -147 -764 -521 -886 -110 -36 -226 -44 -628 -40 -363 3 -382 4 -425 24
-86 41 -146 122 -157 213 -12 101 49 215 141 264 40 21 51 22 466 27 358 5
431 8 460 21 117 53 174 177 139 303 -6 22 -31 60 -56 87 -77 83 -57 80 -714
77 l-574 -3 -78 -27 c-245 -83 -426 -280 -483 -526 -25 -105 -15 -283 21 -391
76 -224 278 -409 510 -468 63 -16 128 -18 685 -18 654 0 664 1 836 51 361 104
671 407 787 769 48 150 52 181 51 380 0 171 -3 199 -26 285 -127 469 -499 808
-971 885 -75 12 -224 15 -823 15 -813 0 -794 -1 -873 67 -151 129 -104 379 83
447 63 23 1604 16 1719 -7z"/>
<path d="M5343 3812 c-282 -163 -509 -300 -505 -304 4 -3 234 -138 512 -298
278 -161 508 -294 513 -297 4 -2 7 266 7 596 0 331 -3 601 -7 601 -5 -1 -239
-134 -520 -298z"/>
</g>
</svg>
